<?xml version="1.0" standalone="no"?>
<!DOCTYPE svg PUBLIC "-//W3C//DTD SVG 20010904//EN"
 "http://www.w3.org/TR/2001/REC-SVG-20010904/DTD/svg10.dtd">
<svg version="1.0" xmlns="http://www.w3.org/2000/svg"
 width="100.000000pt" height="99.000000pt" viewBox="0 0 100.000000 99.000000"
 preserveAspectRatio="xMidYMid meet">
<metadata>
Created by potrace 1.16, written by Peter Selinger 2001-2019
</metadata>
<g transform="translate(0.000000,99.000000) scale(0.100000,-0.100000)"
fill="#000000" stroke="none">
<path d="M374 980 c-22 -5 -57 -15 -78 -24 -20 -8 -40 -16 -44 -17 -4 -1 -32
-19 -63 -40 -75 -50 -182 -174 -136 -156 23 9 30 -24 13 -57 -8 -15 -16 -24
-18 -19 -3 4 -3 2 -2 -5 2 -7 1 -26 -3 -42 -4 -24 -8 -28 -19 -19 -14 12 -20
54 -6 46 4 -3 8 5 8 16 1 12 5 33 8 47 4 14 -2 7 -13 -15 -24 -48 -26 -78 -6
-95 18 -15 20 -40 3 -40 -9 0 -9 -3 0 -12 8 -8 9 -15 1 -25 -7 -8 -8 -13 -2
-13 6 0 10 -23 9 -51 -1 -27 2 -52 6 -55 4 -3 8 -12 8 -21 0 -10 -6 -14 -20
-10 -24 6 -27 -18 -6 -42 7 -9 18 -31 25 -50 12 -36 4 -50 -27 -51 -7 0 -10
-5 -7 -10 4 -7 12 -7 25 0 15 8 24 3 50 -30 17 -22 36 -40 42 -40 6 0 6 6 -2
15 -6 8 -9 19 -5 24 3 6 0 8 -8 5 -8 -3 -17 1 -20 9 -4 10 6 13 44 13 31 -1
51 -6 54 -14 3 -8 13 -11 24 -7 16 5 18 2 14 -14 -6 -22 -20 -18 -41 11 -7 10
-18 16 -23 13 -14 -9 -11 -27 4 -20 6 4 3 -1 -8 -11 -15 -13 -16 -15 -3 -11
10 4 33 -7 60 -28 24 -19 49 -35 56 -35 7 0 11 -4 8 -9 -4 -5 2 -7 12 -4 9 2
31 -3 47 -11 17 -9 38 -16 48 -16 9 0 17 -7 17 -15 0 -8 -7 -15 -16 -15 -8 0
-12 4 -9 10 9 15 -4 12 -21 -5 -12 -12 -13 -16 -2 -19 37 -12 59 -13 64 -5 3
5 1 9 -5 9 -6 0 -8 7 -5 15 4 9 19 15 41 15 20 0 32 -4 28 -10 -3 -5 -2 -10 4
-10 5 0 12 6 14 13 4 9 8 9 15 -1 7 -11 10 -10 16 3 4 11 15 16 33 14 16 -2
43 4 61 13 22 11 32 13 32 5 0 -7 5 -4 11 6 6 9 14 15 19 12 4 -3 10 2 14 10
7 20 23 19 23 -1 0 -9 -15 -23 -34 -32 -28 -14 -44 -32 -28 -32 14 0 65 31 66
40 1 6 3 19 4 30 4 34 5 35 14 22 6 -10 10 -6 15 14 6 22 9 25 17 13 7 -11 9
-9 9 10 0 16 4 21 15 17 8 -3 14 -2 14 2 -1 4 -1 14 0 22 1 13 2 13 11 0 7
-12 10 -8 10 15 0 23 3 27 10 15 8 -12 10 -11 10 7 0 16 4 21 15 17 22 -9 19
-19 -16 -59 -18 -20 -29 -38 -26 -41 7 -7 63 63 82 102 17 35 43 49 75 39 18
-6 20 -2 20 39 0 25 -5 48 -11 51 -9 6 -7 37 7 88 4 13 -1 17 -18 17 -18 0
-20 2 -8 10 8 5 10 10 4 10 -7 0 -15 20 -18 45 -7 43 -26 73 -26 41 0 -9 -9
-16 -20 -16 -11 0 -20 5 -20 12 0 6 -3 9 -6 6 -3 -3 0 -25 6 -48 15 -55 2 -70
-61 -70 l-48 0 -7 48 c-4 26 -17 68 -29 94 -13 26 -20 46 -16 45 10 -3 51 42
51 56 0 8 -9 22 -20 32 -19 17 -20 16 -46 -14 -32 -38 -40 -35 -18 7 17 34 11
72 -11 72 -7 0 -25 -14 -38 -31 -20 -26 -27 -30 -43 -21 -18 11 -18 11 -1 12
10 0 22 12 27 26 14 36 13 39 -15 52 -21 10 -26 9 -35 -8 -5 -10 -10 -28 -10
-39 0 -19 -6 -21 -67 -21 -38 0 -92 -3 -120 -6 -49 -6 -53 -5 -53 15 0 11 4
21 9 21 4 0 6 11 3 25 -5 29 -11 30 -38 10 -19 -14 -19 -15 3 -55 26 -48 16
-51 -27 -9 -41 41 -59 28 -42 -29 17 -56 15 -61 -12 -29 -28 33 -59 33 -64 1
-2 -14 6 -29 22 -42 15 -11 26 -26 26 -33 0 -6 19 7 41 30 60 61 110 84 200
89 67 4 84 1 131 -20 98 -45 178 -153 178 -240 0 -33 -3 -38 -27 -43 -16 -4
-45 -10 -65 -14 -25 -6 -38 -5 -41 3 -3 8 -7 8 -18 -1 -8 -6 -36 -14 -64 -18
-27 -4 -61 -9 -75 -11 -14 -2 -61 -9 -105 -14 -44 -6 -100 -15 -125 -20 -65
-13 -73 2 -67 110 4 67 3 78 -5 50 -6 -19 -8 -65 -5 -102 l4 -67 -33 -11 c-78
-26 -99 3 -90 130 6 93 24 146 76 221 22 33 36 59 30 59 -5 0 -20 -16 -32 -35
-26 -39 -33 -42 -42 -19 -8 21 41 87 60 80 8 -3 11 0 8 8 -5 12 90 86 109 86
5 0 29 9 54 21 26 12 77 23 118 26 81 6 168 -3 160 -18 -3 -5 0 -6 8 -3 8 3
31 -2 52 -10 43 -18 45 -19 45 -8 0 9 -73 39 -130 51 -52 12 -128 12 -186 1z
m-42 -629 c-1 -13 3 -30 9 -37 6 -8 9 -20 6 -27 -4 -10 16 -13 87 -13 50 0
107 -1 126 -3 19 -1 52 -1 72 1 32 3 37 1 32 -14 -6 -21 4 -24 20 -4 6 8 21
17 34 21 17 5 22 2 22 -12 0 -10 10 -23 22 -28 12 -6 24 -17 26 -25 4 -12 0
-11 -19 3 -13 9 -31 20 -39 24 -8 4 -18 11 -21 16 -4 5 -8 -5 -11 -22 -2 -17
-2 -31 2 -31 4 0 12 -12 19 -27 l13 -28 -31 29 c-27 26 -32 27 -48 15 -10 -7
-20 -15 -22 -16 -2 -2 4 -12 14 -23 17 -19 14 -57 -4 -45 -5 3 -13 0 -17 -7
-5 -7 -10 -4 -16 12 -6 16 -5 26 4 31 9 6 9 11 0 22 -10 12 -10 18 2 30 13 13
13 16 1 21 -16 6 -29 -9 -20 -24 3 -5 -2 -10 -12 -11 -10 0 -13 -3 -5 -6 6 -2
12 -10 12 -16 0 -5 -3 -7 -6 -4 -4 3 -16 1 -28 -5 -11 -7 -47 -11 -78 -10
l-57 2 6 -35 c3 -22 2 -35 -5 -35 -16 0 -25 19 -24 51 1 24 -3 29 -24 29 -18
0 -24 -5 -22 -17 1 -10 -1 -24 -6 -31 -6 -10 -11 -9 -22 5 -17 22 -18 34 -2
30 6 -1 13 5 15 15 3 11 -6 20 -29 27 -30 10 -79 51 -60 51 4 0 13 9 20 20 10
17 10 23 -2 35 -20 21 -32 19 -41 -7 l-8 -23 -4 21 c-5 27 10 87 23 91 5 2 19
-16 30 -39 l19 -43 3 48 c3 43 5 48 25 45 17 -2 21 -9 19 -27z"/>
<path d="M399 953 c-1 -5 -1 -12 0 -16 1 -5 -7 -7 -16 -5 -10 1 -22 0 -28 -3
-5 -4 -28 -12 -50 -19 -22 -7 -45 -17 -52 -22 -7 -5 -18 -6 -24 -2 -7 4 -9 3
-5 -4 3 -6 -8 -22 -26 -36 -18 -14 -30 -27 -27 -31 3 -3 17 4 30 16 27 23 143
79 165 79 16 0 19 -17 3 -22 -7 -2 -8 -15 -2 -38 10 -36 36 -51 56 -31 8 8 4
11 -13 12 l-25 0 24 10 c12 5 21 15 18 22 -20 54 -19 57 12 58 17 1 37 2 44 2
26 2 107 -15 112 -22 2 -5 20 -12 39 -15 19 -4 39 -13 46 -21 7 -8 19 -15 27
-15 23 0 -1 25 -38 40 -22 10 -27 15 -17 22 8 5 2 6 -16 2 -16 -4 -27 -3 -23
2 3 5 -18 10 -46 12 -28 2 -54 8 -58 14 -4 5 -9 6 -12 1 -3 -4 -26 -7 -51 -5
-25 2 -43 8 -40 13 3 5 3 9 0 9 -3 0 -7 -3 -7 -7z"/>
</g>
</svg>
