<svg width="24" height="24" viewBox="0 0 24 24" fill="none" xmlns="http://www.w3.org/2000/svg">
<g>
	<g>
		<g>
        <path opacity="2" d="M5.29289 8.70711C5.68342 8.31658 6.31658 8.31658 6.70711 8.70711L9.29289 11.2929C9.68342 11.6834 9.68342 12.3166 9.29289 12.7071L6.70711 15.2929C6.31658 15.6834 5.68342 15.6834 5.29289 15.2929L2.70711 12.7071C2.31658 12.3166 2.31658 11.6834 2.70711 11.2929L5.29289 8.70711Z" fill="black"/>
        <path opacity="0.3" d="M17.2929 8.70711C17.6834 8.31658 18.3166 8.31658 18.7071 8.70711L21.2929 11.2929C21.6834 11.6834 21.6834 12.3166 21.2929 12.7071L18.7071 15.2929C18.3166 15.6834 17.6834 15.6834 17.2929 15.2929L14.7071 12.7071C14.3166 12.3166 14.3166 11.6834 14.7071 11.2929L17.2929 8.70711Z" fill="black"/>
        <path opacity="0.3" d="M17.2929 8.70711C17.6834 8.31658 18.3166 8.31658 18.7071 8.70711L21.2929 11.2929C21.6834 11.6834 21.6834 12.3166 21.2929 12.7071L18.7071 15.2929C18.3166 15.6834 17.6834 15.6834 17.2929 15.2929L14.7071 12.7071C14.3166 12.3166 14.3166 11.6834 14.7071 11.2929L17.2929 8.70711Z" fill="black"/>

		</g>
	</g>
</g>

</svg>
